<?xml version="1.0" encoding="utf-8"?>
<!-- Generator: Adobe Illustrator 22.0.1, SVG Export Plug-In . SVG Version: 6.00 Build 0)  -->
<svg version="1.1" xmlns="http://www.w3.org/2000/svg" xmlns:xlink="http://www.w3.org/1999/xlink" x="0px" y="0px"
	 viewBox="0 0 460.2 141.6" style="enable-background:new 0 0 460.2 141.6;" xml:space="preserve">
<style type="text/css">
	.st0{fill:#353C3F;}
	.st1{fill:#D1AC51;}
</style>
<g id="business_services">
	<g>
		<path class="st0" d="M95.7,122.8c0-1.8-1.5-3-4.6-3.7c-1.8-0.4-3.1-0.9-3.8-1.5c-0.7-0.6-1.1-1.5-1.1-2.5c0-1.1,0.5-2,1.4-2.7
			s2.1-1.1,3.6-1.1c1.6,0,2.9,0.4,3.8,1.1c1,0.8,1.4,1.8,1.4,3.1h-0.8c0-1-0.4-1.8-1.3-2.5c-0.8-0.7-1.9-1-3.3-1
			c-1.3,0-2.3,0.3-3.1,0.8c-0.8,0.6-1.1,1.3-1.1,2.1c0,0.7,0.1,1.2,0.4,1.6c0.3,0.4,0.7,0.7,1.4,1c0.6,0.3,1.6,0.6,2.8,0.9
			c1.2,0.3,2.2,0.6,2.9,1s1.2,0.8,1.5,1.4c0.3,0.5,0.5,1.2,0.5,1.9c0,1.2-0.5,2.1-1.4,2.8s-2.2,1.1-3.8,1.1c-1.7,0-3-0.4-4-1.1
			c-1-0.8-1.5-1.7-1.5-2.9h0.7c0.1,1,0.5,1.8,1.4,2.4c0.8,0.6,2,0.9,3.4,0.9c1.3,0,2.4-0.3,3.2-0.9
			C95.2,124.4,95.7,123.6,95.7,122.8z"/>
		<path class="st0" d="M111.1,126.4h-0.7v-9.9c0-1.5-0.3-2.6-1-3.3s-1.7-1.1-3.1-1.1c-1.6,0-2.9,0.7-4,2.1c-0.6,0.9-1,1.8-1.2,2.8
			v9.3h-0.8v-14.8h0.8v3.5c0.5-1.2,1.2-2.1,2.1-2.8s2-1,3.1-1c1.2,0,2.3,0.3,3,0.8c0.8,0.5,1.3,1.4,1.6,2.7c0.4-1.1,1.1-1.9,2.1-2.5
			s2.1-1,3.3-1c1.6,0,2.8,0.5,3.6,1.4s1.2,2.3,1.2,4.1v9.7h-0.7v-9.6c0-1.6-0.3-2.8-1-3.6c-0.7-0.8-1.7-1.2-3.1-1.1
			c-1.8,0-3.2,0.7-4.3,2.1c-0.6,0.8-0.9,1.6-1,2.3V126.4z"/>
		<path class="st0" d="M135.1,126.4c-0.2-0.6-0.3-1.5-0.3-2.7c-0.6,0.9-1.4,1.7-2.4,2.2s-2.2,0.8-3.4,0.8c-1.4,0-2.5-0.4-3.3-1.1
			s-1.3-1.7-1.3-2.9c0-1.4,0.6-2.4,1.8-3.3c1.2-0.8,2.9-1.2,4.9-1.3h3.7V116c0-1.2-0.4-2.2-1.2-2.9s-1.9-1-3.3-1
			c-1.3,0-2.5,0.3-3.4,1s-1.4,1.5-1.4,2.6l-0.7,0c0-1.2,0.5-2.2,1.6-3.1c1.1-0.8,2.4-1.3,3.9-1.3c1.6,0,2.9,0.4,3.8,1.2
			c0.9,0.8,1.4,1.9,1.4,3.4v7.1c0,1.6,0.1,2.7,0.4,3.3v0.1H135.1z M129,125.9c1.4,0,2.6-0.3,3.6-0.9s1.7-1.5,2.2-2.6v-3.5h-3.4
			c-2.1,0-3.7,0.4-4.9,1.3c-0.9,0.7-1.4,1.5-1.4,2.6c0,0.9,0.4,1.7,1.1,2.3C127,125.6,127.9,125.9,129,125.9z"/>
		<path class="st0" d="M146.9,112.1l-1-0.1c-1.3,0-2.3,0.4-3.2,1.2c-0.8,0.8-1.4,2-1.7,3.4v9.7h-0.7v-14.8h0.7v3.1
			c0.4-1,1-1.8,1.8-2.4s1.8-0.9,3-0.9c0.4,0,0.8,0.1,1,0.2L146.9,112.1z"/>
		<path class="st0" d="M152.1,107.6v4h3.4v0.7h-3.4v10.5c0,1,0.2,1.8,0.5,2.3c0.3,0.5,0.9,0.8,1.7,0.8c0.4,0,0.9,0,1.5-0.1l0.1,0.7
			c-0.3,0.1-0.8,0.2-1.5,0.2c-1.1,0-1.8-0.3-2.3-0.9s-0.7-1.5-0.7-2.8v-10.6h-2.7v-0.7h2.7v-4H152.1z"/>
		<path class="st0" d="M164.6,126.7c-1.2,0-2.3-0.3-3.3-1s-1.8-1.5-2.3-2.6s-0.8-2.4-0.8-3.7v-0.6c0-1.4,0.3-2.6,0.8-3.8
			s1.3-2,2.3-2.7s2-1,3.1-1c1.6,0,3,0.6,4,1.8s1.6,2.7,1.6,4.6v0.8h-11.1v0.8c0,1.2,0.3,2.3,0.8,3.3s1.2,1.8,2.1,2.4
			c0.9,0.6,1.9,0.9,2.9,0.9c1,0,1.8-0.2,2.5-0.5c0.7-0.3,1.3-0.8,1.9-1.5l0.5,0.4C168.4,125.9,166.7,126.7,164.6,126.7z
			 M164.3,112.1c-1.4,0-2.7,0.5-3.7,1.6s-1.6,2.4-1.8,4.1h10.3v-0.2c0-1-0.2-1.9-0.6-2.8s-1-1.5-1.8-2S165.2,112.1,164.3,112.1z"/>
		<path class="st0" d="M179.9,112.1l-1-0.1c-1.3,0-2.3,0.4-3.2,1.2c-0.8,0.8-1.4,2-1.7,3.4v9.7h-0.7v-14.8h0.7v3.1
			c0.4-1,1-1.8,1.8-2.4s1.8-0.9,3-0.9c0.4,0,0.8,0.1,1,0.2L179.9,112.1z"/>
		<path class="st0" d="M200.7,119.1c0,2.3-0.5,4.1-1.5,5.5s-2.3,2-4.1,2c-1.1,0-2.1-0.2-3-0.7s-1.6-1.1-2.1-1.9v2.3h-0.7v-21h0.7
			v8.9c0.5-1,1.2-1.7,2.1-2.2s1.8-0.8,3-0.8c1.7,0,3.1,0.7,4.1,2s1.5,3.2,1.5,5.6V119.1z M200,118.8c0-2.1-0.4-3.8-1.3-5
			s-2-1.8-3.5-1.8c-1.2,0-2.3,0.3-3.2,1s-1.5,1.6-1.9,2.8v6.8c0.4,1,1,1.9,1.9,2.4s1.9,0.9,3.2,0.9c1.5,0,2.7-0.6,3.5-1.8
			S200,121.1,200,118.8z"/>
		<path class="st0" d="M214.7,126.4V124c-0.4,0.8-1.1,1.5-1.9,1.9s-1.9,0.7-3.2,0.7c-1.6,0-2.8-0.5-3.6-1.4s-1.2-2.3-1.2-4.1v-9.5
			h0.7v9.6c0,1.6,0.4,2.8,1.1,3.6s1.7,1.2,3,1.2c1.4,0,2.6-0.3,3.4-1s1.4-1.6,1.7-2.9v-10.4h0.8v14.8H214.7z"/>
		<path class="st0" d="M229.2,122.8c0-1.8-1.5-3-4.6-3.7c-1.8-0.4-3.1-0.9-3.8-1.5s-1.1-1.5-1.1-2.5c0-1.1,0.5-2,1.4-2.7
			s2.1-1.1,3.6-1.1c1.6,0,2.9,0.4,3.8,1.1s1.4,1.8,1.4,3.1h-0.8c0-1-0.4-1.8-1.3-2.5s-1.9-1-3.3-1c-1.3,0-2.3,0.3-3.1,0.8
			s-1.1,1.3-1.1,2.1c0,0.7,0.1,1.2,0.4,1.6s0.7,0.7,1.4,1s1.6,0.6,2.8,0.9s2.2,0.6,2.9,1s1.2,0.8,1.5,1.4s0.5,1.2,0.5,1.9
			c0,1.2-0.5,2.1-1.4,2.8s-2.2,1.1-3.8,1.1c-1.7,0-3-0.4-4-1.1s-1.5-1.7-1.5-2.9h0.7c0.1,1,0.5,1.8,1.4,2.4s2,0.9,3.4,0.9
			c1.3,0,2.4-0.3,3.2-0.9S229.2,123.6,229.2,122.8z"/>
		<path class="st0" d="M233.8,107c0-0.2,0.1-0.4,0.2-0.5s0.3-0.2,0.5-0.2s0.4,0.1,0.5,0.2s0.2,0.3,0.2,0.5s-0.1,0.4-0.2,0.5
			s-0.3,0.2-0.5,0.2s-0.4-0.1-0.5-0.2S233.8,107.2,233.8,107z M234.9,126.4h-0.7v-14.8h0.7V126.4z"/>
		<path class="st0" d="M240.5,115c0.5-1.1,1.2-2.1,2.1-2.7s2-1,3.1-1c1.6,0,2.8,0.4,3.5,1.3s1.2,2.3,1.2,4.1v9.7h-0.7v-9.7
			c0-1.6-0.3-2.8-1-3.5s-1.6-1.1-3-1.1c-1.3,0-2.4,0.5-3.3,1.4s-1.6,2.1-1.9,3.5v9.5h-0.7v-14.8h0.7V115z"/>
		<path class="st0" d="M260.4,126.7c-1.2,0-2.3-0.3-3.3-1s-1.8-1.5-2.3-2.6s-0.8-2.4-0.8-3.7v-0.6c0-1.4,0.3-2.6,0.8-3.8
			s1.3-2,2.3-2.7s2-1,3.1-1c1.6,0,3,0.6,4,1.8s1.6,2.7,1.6,4.6v0.8h-11.1v0.8c0,1.2,0.3,2.3,0.8,3.3s1.2,1.8,2.1,2.4
			c0.9,0.6,1.9,0.9,2.9,0.9c1,0,1.8-0.2,2.5-0.5c0.7-0.3,1.3-0.8,1.9-1.5l0.5,0.4C264.2,125.9,262.6,126.7,260.4,126.7z
			 M260.2,112.1c-1.4,0-2.7,0.5-3.7,1.6s-1.6,2.4-1.8,4.1H265v-0.2c0-1-0.2-1.9-0.6-2.8s-1-1.5-1.8-2S261.1,112.1,260.2,112.1z"/>
		<path class="st0" d="M278.3,122.8c0-1.8-1.5-3-4.6-3.7c-1.8-0.4-3.1-0.9-3.8-1.5s-1.1-1.5-1.1-2.5c0-1.1,0.5-2,1.4-2.7
			s2.1-1.1,3.6-1.1c1.6,0,2.9,0.4,3.8,1.1s1.4,1.8,1.4,3.1h-0.8c0-1-0.4-1.8-1.3-2.5s-1.9-1-3.3-1c-1.3,0-2.3,0.3-3.1,0.8
			s-1.1,1.3-1.1,2.1c0,0.7,0.1,1.2,0.4,1.6s0.7,0.7,1.4,1s1.6,0.6,2.8,0.9s2.2,0.6,2.9,1s1.2,0.8,1.5,1.4s0.5,1.2,0.5,1.9
			c0,1.2-0.5,2.1-1.4,2.8s-2.2,1.1-3.8,1.1c-1.7,0-3-0.4-4-1.1s-1.5-1.7-1.5-2.9h0.7c0.1,1,0.5,1.8,1.4,2.4s2,0.9,3.4,0.9
			c1.3,0,2.4-0.3,3.2-0.9S278.3,123.6,278.3,122.8z"/>
		<path class="st0" d="M292.3,122.8c0-1.8-1.5-3-4.6-3.7c-1.8-0.4-3.1-0.9-3.8-1.5s-1.1-1.5-1.1-2.5c0-1.1,0.5-2,1.4-2.7
			s2.1-1.1,3.6-1.1c1.6,0,2.9,0.4,3.8,1.1s1.4,1.8,1.4,3.1h-0.8c0-1-0.4-1.8-1.3-2.5s-1.9-1-3.3-1c-1.3,0-2.3,0.3-3.1,0.8
			s-1.1,1.3-1.1,2.1c0,0.7,0.1,1.2,0.4,1.6s0.7,0.7,1.4,1s1.6,0.6,2.8,0.9s2.2,0.6,2.9,1s1.2,0.8,1.5,1.4s0.5,1.2,0.5,1.9
			c0,1.2-0.5,2.1-1.4,2.8s-2.2,1.1-3.8,1.1c-1.7,0-3-0.4-4-1.1s-1.5-1.7-1.5-2.9h0.7c0.1,1,0.5,1.8,1.4,2.4s2,0.9,3.4,0.9
			c1.3,0,2.4-0.3,3.2-0.9S292.3,123.6,292.3,122.8z"/>
		<path class="st0" d="M312.9,122.8c0-1.8-1.5-3-4.6-3.7c-1.8-0.4-3.1-0.9-3.8-1.5s-1.1-1.5-1.1-2.5c0-1.1,0.5-2,1.4-2.7
			s2.1-1.1,3.6-1.1c1.6,0,2.9,0.4,3.8,1.1s1.4,1.8,1.4,3.1h-0.8c0-1-0.4-1.8-1.3-2.5s-1.9-1-3.3-1c-1.3,0-2.3,0.3-3.1,0.8
			s-1.1,1.3-1.1,2.1c0,0.7,0.1,1.2,0.4,1.6s0.7,0.7,1.4,1s1.6,0.6,2.8,0.9s2.2,0.6,2.9,1s1.2,0.8,1.5,1.4s0.5,1.2,0.5,1.9
			c0,1.2-0.5,2.1-1.4,2.8s-2.2,1.1-3.8,1.1c-1.7,0-3-0.4-4-1.1s-1.5-1.7-1.5-2.9h0.7c0.1,1,0.5,1.8,1.4,2.4s2,0.9,3.4,0.9
			c1.3,0,2.4-0.3,3.2-0.9S312.9,123.6,312.9,122.8z"/>
		<path class="st0" d="M323,126.7c-1.2,0-2.3-0.3-3.3-1s-1.8-1.5-2.3-2.6s-0.8-2.4-0.8-3.7v-0.6c0-1.4,0.3-2.6,0.8-3.8
			s1.3-2,2.3-2.7s2-1,3.1-1c1.6,0,3,0.6,4,1.8s1.6,2.7,1.6,4.6v0.8h-11.1v0.8c0,1.2,0.3,2.3,0.8,3.3s1.2,1.8,2.1,2.4
			c0.9,0.6,1.9,0.9,2.9,0.9c1,0,1.8-0.2,2.5-0.5c0.7-0.3,1.3-0.8,1.9-1.5l0.5,0.4C326.8,125.9,325.2,126.7,323,126.7z M322.8,112.1
			c-1.4,0-2.7,0.5-3.7,1.6s-1.6,2.4-1.8,4.1h10.3v-0.2c0-1-0.2-1.9-0.6-2.8s-1-1.5-1.8-2S323.7,112.1,322.8,112.1z"/>
		<path class="st0" d="M338.3,112.1l-1-0.1c-1.3,0-2.3,0.4-3.2,1.2c-0.8,0.8-1.4,2-1.7,3.4v9.7h-0.7v-14.8h0.7v3.1
			c0.4-1,1-1.8,1.8-2.4s1.8-0.9,3-0.9c0.4,0,0.8,0.1,1,0.2L338.3,112.1z"/>
		<path class="st0" d="M345.8,125.2l5.3-13.6h0.8l-5.8,14.8h-0.7l-5.7-14.8h0.8L345.8,125.2z"/>
		<path class="st0" d="M354.6,107c0-0.2,0.1-0.4,0.2-0.5s0.3-0.2,0.5-0.2s0.4,0.1,0.5,0.2s0.2,0.3,0.2,0.5s-0.1,0.4-0.2,0.5
			s-0.3,0.2-0.5,0.2s-0.4-0.1-0.5-0.2S354.6,107.2,354.6,107z M355.7,126.4H355v-14.8h0.7V126.4z"/>
		<path class="st0" d="M365.6,125.9c1.3,0,2.4-0.4,3.3-1.1s1.3-1.7,1.4-3h0.7c-0.1,1.4-0.6,2.6-1.7,3.5s-2.3,1.3-3.8,1.3
			c-1.9,0-3.3-0.7-4.4-2s-1.6-3.2-1.6-5.5v-0.5c0-2.2,0.5-4,1.6-5.4s2.5-2,4.4-2c1.6,0,2.9,0.5,3.9,1.4s1.6,2.2,1.6,3.7h-0.7
			c-0.1-1.3-0.5-2.4-1.4-3.2s-2-1.2-3.4-1.2c-1.6,0-2.9,0.6-3.9,1.8s-1.4,2.8-1.4,5v0.5c0,2.1,0.5,3.7,1.4,4.9
			S363.9,125.9,365.6,125.9z"/>
		<path class="st0" d="M380.1,126.7c-1.2,0-2.3-0.3-3.3-1s-1.8-1.5-2.3-2.6s-0.8-2.4-0.8-3.7v-0.6c0-1.4,0.3-2.6,0.8-3.8
			s1.3-2,2.3-2.7s2-1,3.1-1c1.6,0,3,0.6,4,1.8s1.6,2.7,1.6,4.6v0.8h-11.1v0.8c0,1.2,0.3,2.3,0.8,3.3s1.2,1.8,2.1,2.4
			c0.9,0.6,1.9,0.9,2.9,0.9c1,0,1.8-0.2,2.5-0.5c0.7-0.3,1.3-0.8,1.9-1.5l0.5,0.4C383.9,125.9,382.3,126.7,380.1,126.7z
			 M379.8,112.1c-1.4,0-2.7,0.5-3.7,1.6s-1.6,2.4-1.8,4.1h10.3v-0.2c0-1-0.2-1.9-0.6-2.8s-1-1.5-1.8-2S380.7,112.1,379.8,112.1z"/>
		<path class="st0" d="M398,122.8c0-1.8-1.5-3-4.6-3.7c-1.8-0.4-3.1-0.9-3.8-1.5s-1.1-1.5-1.1-2.5c0-1.1,0.5-2,1.4-2.7
			s2.1-1.1,3.6-1.1c1.6,0,2.9,0.4,3.8,1.1s1.4,1.8,1.4,3.1H398c0-1-0.4-1.8-1.3-2.5s-1.9-1-3.3-1c-1.3,0-2.3,0.3-3.1,0.8
			s-1.1,1.3-1.1,2.1c0,0.7,0.1,1.2,0.4,1.6s0.7,0.7,1.4,1s1.6,0.6,2.8,0.9s2.2,0.6,2.9,1s1.2,0.8,1.5,1.4s0.5,1.2,0.5,1.9
			c0,1.2-0.5,2.1-1.4,2.8s-2.2,1.1-3.8,1.1c-1.7,0-3-0.4-4-1.1s-1.5-1.7-1.5-2.9h0.7c0.1,1,0.5,1.8,1.4,2.4s2,0.9,3.4,0.9
			c1.3,0,2.4-0.3,3.2-0.9S398,123.6,398,122.8z"/>
	</g>
</g>
<g id="First_Payment_Logo">
	<g>
		<rect x="60.7" y="17.6" class="st1" width="20" height="112.8"/>
		
			<rect x="41.6" y="-1.2" transform="matrix(6.123234e-17 -1 1 6.123234e-17 24.0918 79.1244)" class="st1" width="20" height="57.4"/>
		<polygon id="triangle" class="st1" points="55,44.6 55,79.3 37.6,62 		"/>
	</g>
	<path id="half_circle" class="st0" d="M86.5,17.6c12.3,0,22.2,9.9,22.2,22.2S98.7,62,86.5,62V17.6z"/>
	<g>
		<path class="st1" d="M103.7,90.5H91.4v12.9h-3.9V74.1h18.1v3.2H91.4v10h12.3V90.5z"/>
		<path class="st1" d="M114.5,103.4h-3.9V74.1h3.9V103.4z"/>
		<path class="st1" d="M132.3,91.6h-6.9v11.8h-3.9V74.1h9.7c3.3,0,5.8,0.8,7.6,2.3c1.8,1.5,2.7,3.7,2.7,6.6c0,1.8-0.5,3.4-1.5,4.8
			c-1,1.4-2.4,2.4-4.1,3l6.9,12.4v0.2h-4.1L132.3,91.6z M125.4,88.4h5.9c1.9,0,3.4-0.5,4.6-1.5c1.1-1,1.7-2.3,1.7-4
			c0-1.8-0.5-3.2-1.6-4.2c-1.1-1-2.6-1.5-4.7-1.5h-5.9V88.4z"/>
		<path class="st1" d="M155.5,90.3c-3.3-1-5.7-2.1-7.2-3.5s-2.3-3.1-2.3-5.1c0-2.3,0.9-4.2,2.8-5.7c1.8-1.5,4.2-2.3,7.2-2.3
			c2,0,3.8,0.4,5.4,1.2c1.6,0.8,2.8,1.9,3.7,3.2c0.9,1.4,1.3,2.9,1.3,4.5h-3.9c0-1.8-0.6-3.2-1.7-4.2c-1.1-1-2.7-1.5-4.8-1.5
			c-1.9,0-3.4,0.4-4.5,1.3c-1.1,0.8-1.6,2-1.6,3.5c0,1.2,0.5,2.2,1.5,3c1,0.8,2.7,1.6,5.2,2.3s4.3,1.4,5.7,2.3s2.4,1.8,3.1,2.9
			c0.7,1.1,1,2.4,1,3.9c0,2.4-0.9,4.3-2.8,5.7c-1.9,1.4-4.3,2.1-7.4,2.1c-2,0-3.9-0.4-5.6-1.2c-1.7-0.8-3.1-1.8-4-3.2
			s-1.4-2.9-1.4-4.6h3.9c0,1.8,0.7,3.2,2,4.2c1.3,1,3.1,1.5,5.2,1.5c2,0,3.6-0.4,4.7-1.2c1.1-0.8,1.6-2,1.6-3.4s-0.5-2.5-1.5-3.3
			C160,91.9,158.2,91.1,155.5,90.3z"/>
		<path class="st1" d="M191.6,77.3h-9.4v26.1h-3.8V77.3h-9.4v-3.2h22.6V77.3z"/>
		<path class="st0" d="M209.2,91.9v11.5h-3.9V74.1h10.8c3.2,0,5.7,0.8,7.5,2.5c1.8,1.6,2.7,3.8,2.7,6.5c0,2.8-0.9,5-2.7,6.6
			c-1.8,1.5-4.3,2.3-7.6,2.3H209.2z M209.2,88.8h6.9c2.1,0,3.6-0.5,4.7-1.5s1.6-2.4,1.6-4.2c0-1.7-0.5-3.1-1.6-4.2s-2.6-1.6-4.5-1.6
			h-7.2V88.8z"/>
		<path class="st0" d="M244.7,95.7h-12.3l-2.8,7.7h-4l11.2-29.3h3.4l11.2,29.3h-4L244.7,95.7z M233.6,92.6h10l-5-13.7L233.6,92.6z"
			/>
		<path class="st0" d="M262.5,88.8l7.6-14.7h4.4l-10.1,18.4v10.9h-3.9V92.5l-10.1-18.4h4.4L262.5,88.8z"/>
		<path class="st0" d="M283.2,74.1l9.6,23.9l9.6-23.9h5v29.3h-3.9V92l0.4-12.3l-9.6,23.7h-3l-9.6-23.7l0.4,12.2v11.4h-3.9V74.1
			H283.2z"/>
		<path class="st0" d="M330.8,89.9h-12.7v10.4h14.7v3.2h-18.6V74.1h18.4v3.2h-14.5v9.4h12.7V89.9z"/>
		<path class="st0" d="M360.1,103.4h-3.9l-14.7-22.6v22.6h-3.9V74.1h3.9l14.8,22.7V74.1h3.8V103.4z"/>
		<path class="st0" d="M386.7,77.3h-9.4v26.1h-3.8V77.3H364v-3.2h22.6V77.3z"/>
	</g>
	<g id="ayment_finance">
	</g>
</g>
</svg>
