<?xml version="1.0" encoding="utf-8"?>
<!-- Generator: Adobe Illustrator 21.1.0, SVG Export Plug-In . SVG Version: 6.00 Build 0)  -->
<svg version="1.1" id="Layer_1" xmlns="http://www.w3.org/2000/svg" xmlns:xlink="http://www.w3.org/1999/xlink" x="0px" y="0px"
	 viewBox="0 0 387 515" style="enable-background:new 0 0 387 515;" xml:space="preserve">
<style type="text/css">
	.st0{fill:#69933C;}
</style>
<g>
	<path class="st0" d="M199.3,364.4v18.3c0,1.5-1.2,2.8-2.8,2.8h-42.3c-1.5,0-2.8-1.2-2.8-2.8v-18.3c-5.2,0.1-9.5,4.4-9.5,9.6v76.4
		c0,5.3,4.3,9.6,9.6,9.6h47.7c5.3,0,9.6-4.3,9.6-9.6V374C209,368.7,204.7,364.4,199.3,364.4z M152.9,395.1h45.3
		c0.8,0,1.4,0.6,1.4,1.4v10.4c0,0.8-0.6,1.4-1.4,1.4h-45.3c-0.8,0-1.4-0.6-1.4-1.4v-10.4C151.5,395.7,152.1,395.1,152.9,395.1z
		 M163.7,445.9c0,1.9-1.6,3.5-3.5,3.5h-6.1c-1.9,0-3.4-1.5-3.4-3.4v-0.7c0-1.9,1.5-3.4,3.4-3.4h6.2c1.9,0,3.4,1.5,3.4,3.4
		L163.7,445.9L163.7,445.9z M163.7,433.4c0,1.9-1.6,3.5-3.5,3.5h-6.1c-1.9,0-3.4-1.5-3.4-3.4v-0.7c0-1.9,1.5-3.4,3.4-3.4h6.2
		c1.9,0,3.4,1.5,3.4,3.4L163.7,433.4L163.7,433.4z M163.7,421c0,1.9-1.6,3.5-3.5,3.5h-6.1c-1.9,0-3.4-1.5-3.4-3.4v-0.7
		c0-1.9,1.5-3.4,3.4-3.4h6.2c1.9,0,3.4,1.5,3.4,3.4L163.7,421L163.7,421z M178.6,449.4h-6.2c-1.9,0-3.4-1.5-3.4-3.4v-0.7
		c0-1.9,1.5-3.4,3.4-3.4h6.2c1.9,0,3.4,1.5,3.4,3.4v0.7C182,447.9,180.5,449.4,178.6,449.4z M178.6,436.9h-6.2
		c-1.9,0-3.4-1.5-3.4-3.4v-0.7c0-1.9,1.5-3.4,3.4-3.4h6.2c1.9,0,3.4,1.5,3.4,3.4v0.7C182,435.4,180.5,436.9,178.6,436.9z
		 M178.6,424.4h-6.2c-1.9,0-3.4-1.5-3.4-3.4v-0.7c0-1.9,1.5-3.4,3.4-3.4h6.2c1.9,0,3.4,1.5,3.4,3.4v0.7
		C182,422.9,180.5,424.4,178.6,424.4z M196.9,449.4h-6.2c-1.9,0-3.4-1.5-3.4-3.4v-0.7c0-1.9,1.5-3.4,3.4-3.4h6.2
		c1.9,0,3.4,1.5,3.4,3.4v0.7C200.2,447.9,198.7,449.4,196.9,449.4z M196.9,436.9h-6.2c-1.9,0-3.4-1.5-3.4-3.4v-0.7
		c0-1.9,1.5-3.4,3.4-3.4h6.2c1.9,0,3.4,1.5,3.4,3.4v0.7C200.2,435.4,198.7,436.9,196.9,436.9z M196.9,424.4h-6.2
		c-1.9,0-3.4-1.5-3.4-3.4v-0.7c0-1.9,1.5-3.4,3.4-3.4h6.2c1.9,0,3.4,1.5,3.4,3.4v0.7C200.2,422.9,198.7,424.4,196.9,424.4z
		 M156.8,341.9v38.1h37v-38.1H156.8z M164.2,348.2h11.7c1.4,0,2.6,1,2.8,2.3c0.3,1.7-1,3.2-2.7,3.2h-11.7c-1.4,0-2.6-1-2.8-2.3
		C161.1,349.7,162.5,348.2,164.2,348.2z M178.1,375h-13.9c-1.4,0-2.6-1-2.8-2.3c-0.3-1.7,1-3.2,2.7-3.2h13.9c1.4,0,2.6,1,2.8,2.3
		C181.1,373.5,179.8,375,178.1,375z M185.3,364.4h-21.1c-1.4,0-2.6-1-2.8-2.3c-0.3-1.7,1-3.2,2.7-3.2h21.1c1.4,0,2.6,1,2.8,2.3
		C188.3,362.8,187,364.4,185.3,364.4z"/>
	<g>
	</g>
	<g>
	</g>
	<g>
	</g>
	<g>
	</g>
	<g>
	</g>
	<g>
	</g>
	<g>
	</g>
	<g>
	</g>
	<g>
	</g>
	<g>
	</g>
	<g>
	</g>
	<g>
	</g>
	<g>
	</g>
	<g>
	</g>
	<g>
	</g>
</g>
<g transform="scale(7.236127988290883) translate(10, 10)">
	
		<g id="SvgjsG1010" transform="translate(-4.77671646339837, -4.776716463398356) scale(0.9553432926796711)" xmlns:name="symbol_mainfill">
		<path class="st0" d="M14.1,28.8c-2.9,0-5.4-2-7.3-4.7C4,20.1,2.1,14.6,1.3,11.1c-0.1-0.2,0.1-0.5,0.3-0.5c0.1,0,0.2,0,0.3,0
			c1.7,0.8,3.8,1.3,5.8,1.8c4.4,1.1,8.9,2.3,11.1,6c0.6,1.1,1,2.5,1,3.9c0,1.1-0.2,2.2-0.6,3.2c-0.1,0.2-0.2,0.3-0.2,0.5
			c0.1,0.2,0.2,0.3,0.3,0.5c0.6,1.2,1,2.3,1.3,3.6c0.4-2.7,0.9-4.9,1.6-6.9c0-0.1,0.1-0.2,0.1-0.3c-0.2-0.2-0.3-0.4-0.4-0.5
			c-0.6-0.8-1-1.8-1.2-2.9c-0.3-1.8-0.1-3.7,0.8-5.5c2.6-5.2,7.9-7.5,13-9.7c2.4-1,4.8-2,6.9-3.4l0,0c0.1,0,0.1-0.1,0.2-0.1
			c0.2,0,0.5,0.2,0.5,0.4c0.1,4.4-0.8,11.1-3.2,16.3c-1.8,3.7-4.5,6.7-8.4,7.4c-2.5,0.5-4.6,0.2-6.2-0.6c-0.5-0.2-0.9-0.5-1.3-0.9
			c-1,2.6-1.6,5.8-1.9,10c0,0,0,0,0,0c-0.2,2.2-0.3,4.7-0.3,7.6c0,0.2-0.2,0.4-0.5,0.4c-0.2,0-0.4-0.2-0.4-0.5
			c0.1-2.9,0.2-5.4,0.3-7.6c-0.2-2.3-0.7-4.5-1.8-6.6l0,0C18,27.3,17.6,27.7,17,28C16.2,28.5,15.3,28.8,14.1,28.8L14.1,28.8z
			 M14,21.1c-0.2-0.2-0.2-0.5,0-0.6c0.2-0.2,0.5-0.2,0.6,0c1.5,1.5,2.8,3,3.8,4.7c0.4-0.8,0.5-1.8,0.5-2.8c0-1.3-0.3-2.5-0.9-3.4
			c-2.1-3.4-6.3-4.5-10.6-5.6c-1.8-0.5-3.5-0.9-5.1-1.5C3.3,15.2,5,20,7.5,23.5c1.8,2.5,4,4.4,6.6,4.4c1,0,1.8-0.2,2.5-0.6
			c0.5-0.3,1-0.7,1.3-1.2C16.9,24.3,15.6,22.6,14,21.1L14,21.1z M30.8,12.6c0.2-0.2,0.5-0.1,0.6,0.1c0.2,0.2,0.1,0.5-0.1,0.6
			c-3.9,3.1-6.4,5.8-8,9.4c0.4,0.4,0.8,0.7,1.3,0.9c1.4,0.7,3.3,1,5.6,0.5c3.5-0.7,6-3.4,7.7-6.9c2.3-4.7,3.1-10.8,3.2-15.1
			c-1.9,1.1-4.1,2.1-6.3,3c-5,2.1-10.1,4.3-12.6,9.3c-0.8,1.6-1,3.3-0.7,4.9c0.2,0.9,0.5,1.8,1,2.5c0,0,0.1,0.1,0.1,0.1
			C24.3,18.4,26.8,15.7,30.8,12.6z"/>
	</g>
</g>
</svg>
