<?xml version="1.0" encoding="utf-8"?>
<!-- Generator: Adobe Illustrator 21.1.0, SVG Export Plug-In . SVG Version: 6.00 Build 0)  -->
<svg version="1.1" id="Layer_1" xmlns="http://www.w3.org/2000/svg" xmlns:xlink="http://www.w3.org/1999/xlink" x="0px" y="0px"
	 viewBox="0 0 3144.7 766.9" style="enable-background:new 0 0 3144.7 766.9;" xml:space="preserve">
<style type="text/css">
	.st0{fill:#69933C;}
</style>
<g id="main_text" transform="translate(97.69964634117038, -7.540889049546287)" xmlns:name="mainText_mainfill">
	<path class="st0" d="M844.7,177.6V191H720.9v84.6h118.7V289H720.9v100.9h-15.6V177.6H844.7L844.7,177.6z M902.6,177.6v212.2H887
		V177.6H902.6z M957.5,389.8V177.6h87.6c38.4,0,57.6,17,57.6,50.9c0,29.4-20.8,50.2-62.5,62.5l71.7,98.8h-21.4l-70.5-98.4v-10.5
		c43.5-6.4,65.3-23.5,65.3-51.2c0-25.5-14.2-38.3-42.7-38.3h-69.5v198.4H957.5L957.5,389.8z M1139.3,382.4v-16.3
		c22.3,7.9,46.8,11.9,73.6,11.9c44.4,0,66.6-16.8,66.6-50.5c0-24.7-14.4-37.1-43.3-37.1h-43.6c-39.5,0-59.2-17.8-59.2-53.4
		c0-40.6,28.9-60.8,86.8-60.8c23.7,0,46.7,3,69,8.9v14.8c-22.3-6.9-45.3-10.4-69-10.4c-47.5,0-71.2,15.8-71.2,47.5
		c0,25.7,14.5,38.6,43.6,38.6h43.6c39.3,0,58.9,17.3,58.9,51.9c0,42.5-27.4,63.8-82.2,63.8C1186.1,391.3,1161.5,388.3,1139.3,382.4
		L1139.3,382.4z M1472.4,177.6V191h-72.7v198.8h-15.6V190.9h-71.2v-13.4h159.5V177.6z M1571.9,389.8V177.6h89
		c41.4,0,62,19.4,62,58.3c0,38.3-33.1,62.7-99.3,73.2l-2.7-14.2c56.4-7.8,84.6-27.1,84.6-57.7c0-30.5-15.7-45.7-47.2-45.7h-70.9
		v198.4L1571.9,389.8L1571.9,389.8z M1757.4,389.8h-16.6l96-212.2h18.5l96.5,212.2h-18.5l-31.5-71.2h-89.2l6.1-13.4h77.3
		l-50.9-115.5L1757.4,389.8z M1962.1,177.6h18.5l68.7,123.2l70.8-123.2h17.1l-79.5,138v74.2h-15.6v-74.2L1962.1,177.6z
		 M2166.2,389.8V177.6h15.6l95.7,194l89.8-194h14.1v212.2h-14.1V206.2L2283,389.8h-12.8l-89.9-185v185H2166.2L2166.2,389.8z
		 M2568.2,177.6V191h-123.8v84.6h118.7V289h-118.7v87.6h125.8V390h-141.4V177.6H2568.2L2568.2,177.6z M2614.1,389.8V177.6h20
		l141.7,185.8V177.6h14.1v212.2h-12.6l-149.1-194.7v194.7H2614.1L2614.1,389.8z M2974.7,177.6V191H2902v198.8h-15.6V190.9h-71.2
		v-13.4h159.5V177.6z"/>
</g>
<g id="slogan_text" transform="translate(100.19964634117038, 44.24036095045371)" xmlns:name="sloganText_mainfill">
	<path class="st0" d="M760,434.5c-1.5-2.1-3.2-3.7-5-4.8c-1.8-1.1-3.8-2-6-2.5s-4.3-0.9-6.5-0.9c-3.6,0-6.7,0.4-9.4,1.2
		c-2.7,0.8-4.9,1.9-6.7,3.4c-1.8,1.4-3.1,3.1-4,4.9c-0.9,1.9-1.3,3.9-1.3,5.9c0,3.1,0.6,5.6,1.7,7.5c1.1,1.9,2.5,3.4,4.2,4.6
		s3.6,2.1,5.6,2.7s4,1.3,5.9,2l14.3,4.7c4.3,1.4,8.1,2.9,11.3,4.7c3.3,1.7,6,3.8,8.2,6.2c2.2,2.4,3.9,5.1,5.1,8.2
		c1.2,3.1,1.7,6.7,1.7,10.8c0,4.4-0.9,8.5-2.7,12.3s-4.3,7-7.6,9.8c-3.3,2.8-7.1,5-11.6,6.5c-4.5,1.6-9.4,2.4-14.8,2.4
		c-5.5,0-10.2-0.6-14.1-1.9s-7.2-2.9-9.9-5s-4.8-4.5-6.4-7.2c-1.6-2.7-2.9-5.4-3.7-8.3h-5.4v-12.2h17.8c0,5.2,0.6,8.9,1.7,11.1
		c1.1,2.2,2.6,4,4.6,5.4s4.3,2.5,7.1,3.3c2.7,0.7,5.7,1.1,9,1.1c3.2,0,6.1-0.4,8.7-1.1c2.6-0.8,4.8-1.8,6.6-3.3
		c1.8-1.4,3.2-3.2,4.2-5.2s1.4-4.4,1.4-7c0-2.9-0.6-5.3-1.8-7.3s-2.7-3.7-4.6-5.1c-1.9-1.4-3.9-2.6-6.2-3.5
		c-2.2-0.9-4.4-1.7-6.5-2.3l-15.5-4.4c-3.4-1-6.5-2.4-9.3-4s-5.2-3.6-7.2-5.9s-3.5-5-4.6-8.1s-1.6-6.7-1.6-10.7
		c0-4.1,0.8-7.9,2.4-11.5c1.6-3.6,4-6.7,7.1-9.4s6.9-4.8,11.4-6.3s9.6-2.3,15.4-2.3c3.8,0,7.3,0.4,10.6,1.3c3.2,0.9,6.1,2.2,8.8,3.8
		c2.6,1.6,4.9,3.6,6.9,5.9s3.7,4.8,5.1,7.5h5.3v12.2h-17.3C762.2,439.6,761.5,436.5,760,434.5L760,434.5z M789.8,448.6h23.3v8.6h0.1
		c1.6-1.4,3.3-2.6,5.1-3.9c1.8-1.2,3.6-2.2,5.5-3.1s3.9-1.6,6-2.1s4.3-0.8,6.5-0.8c5.3,0,9.8,1,13.6,2.9s6.8,5,8.8,9.2
		c1.8-1.6,3.7-3.1,5.7-4.6s4-2.8,6.2-3.9s4.4-2,6.7-2.6c2.4-0.7,4.8-1,7.3-1c4,0,7.5,0.5,10.7,1.6s5.8,2.7,8.1,4.9
		c2.2,2.2,3.9,5.1,5.1,8.5c1.2,3.5,1.7,7.5,1.7,12.3v35.1h10.2v12.2h-34.2v-12.2h10.3v-33.4c0-5.6-1.4-9.9-4.2-12.8
		s-6.9-4.3-12.2-4.3c-3.2,0-6.4,0.8-9.7,2.3s-6.1,3.4-8.5,5.7v42.5H872v12.2h-34v-12.2h10.3v-33.4c0-5.6-1.4-9.9-4.3-12.8
		c-2.9-2.9-6.9-4.3-12.3-4.3c-3.1,0-6.1,0.7-9.3,2.2c-3.1,1.5-6.1,3.3-8.8,5.4v42.9H824v12.2h-34.2v-12.2H800v-48.9h-10.2V448.6
		L789.8,448.6z M977.7,515c-2.8,2.6-5.9,4.7-9.2,6.4c-3.4,1.6-7.2,2.5-11.5,2.5c-3.6,0-6.9-0.6-9.9-1.7c-3-1.1-5.6-2.7-7.7-4.6
		c-2.2-2-3.9-4.2-5.1-6.8c-1.2-2.6-1.8-5.3-1.8-8.3c0-3.1,0.5-5.9,1.4-8.3s2.1-4.5,3.7-6.3s3.3-3.3,5.4-4.5s4.2-2.2,6.4-2.9
		c2.2-0.7,4.5-1.2,6.9-1.6c2.3-0.3,4.6-0.5,6.7-0.5c3.4,0,6.2,0.1,8.6,0.3c2.3,0.2,4.4,0.5,6.3,0.9l0.1-6c0-2.6-0.4-4.8-1.1-6.7
		c-0.8-1.9-1.8-3.5-3.2-4.7s-3-2.2-4.9-2.8c-1.9-0.6-4-0.9-6.4-0.9c-2.2,0-4.3,0.2-6.4,0.5c-2,0.3-3.9,0.7-5.7,1.2s-3.4,1.1-4.9,1.7
		s-2.7,1.3-3.8,2l-4.3-9.1c1.7-1.1,3.7-2.2,5.7-3.1c2.1-1,4.3-1.8,6.5-2.5c2.3-0.7,4.6-1.2,7-1.6s4.7-0.6,7-0.6
		c4.2,0,8.1,0.5,11.4,1.5c3.4,1,6.3,2.6,8.6,4.7c2.4,2.1,4.2,4.8,5.4,8.1c1.3,3.3,1.9,7.2,1.9,11.8l-0.1,36.6h8.1v12.2h-21.3
		L977.7,515L977.7,515z M959.9,512.8c1.7,0,3.5-0.2,5.2-0.6c1.7-0.4,3.4-1,4.9-1.7s3-1.6,4.3-2.5c1.3-1,2.4-2,3.3-3l0.1-16.5h-15.3
		c-2.5,0-4.9,0.3-7,0.8c-2.1,0.6-3.9,1.4-5.4,2.5s-2.7,2.4-3.6,4c-0.8,1.6-1.3,3.4-1.3,5.5c0,1.9,0.4,3.6,1.1,5.1s1.7,2.6,3,3.6
		s2.8,1.7,4.6,2.2C955.7,512.6,957.7,512.8,959.9,512.8L959.9,512.8z M1066.4,464.1H1053v-4.5c-1.6,0-3.1,0.3-4.8,0.9
		c-1.6,0.6-3.1,1.5-4.6,2.7c-1.4,1.2-2.7,2.7-3.7,4.6c-1.1,1.9-1.8,4.1-2.3,6.6v35.3h12.4v12.2h-36.3v-12.2h10.1l0.1-48.9h-10.2
		v-12.2h23.4v10.1c0.8-1.5,1.8-2.9,2.9-4.2c1.1-1.3,2.2-2.4,3.5-3.4s2.7-1.7,4.3-2.3c1.6-0.5,3.3-0.8,5.1-0.8h6.9c0,0,2.2,0,6.5,0.1
		L1066.4,464.1L1066.4,464.1z M1102.8,448.6h17.2v10.7h-17.3l-0.2,42.3c0,2.9,0.3,5.2,1,7s1.7,3,3.2,3.7c1.5,0.7,3.1,1,4.9,1
		c2,0,3.7-0.2,5.2-0.5c1.5-0.4,3.2-1,4.9-1.8l3,8.8c-2.3,1.2-4.6,2.1-7.1,2.8s-5.4,1-8.8,1c-3.2,0-6-0.4-8.4-1.2s-4.4-2.1-6-3.9
		c-1.6-1.8-2.8-4.3-3.6-7.4c-0.8-3.1-1.2-6.9-1.2-11.6l0.2-40.3h-11.7v-10.7h11.8V431l12.9-6.1V448.6L1102.8,448.6z M1170.2,509.6
		h10.2v-82.8h-10.2v-12.4l48.2,0.1c4.3,0,8.4,0.8,12.2,2.4s7.1,3.8,10,6.6s5.1,6.1,6.7,9.9s2.4,7.9,2.4,12.3c0,4.6-1.3,8.7-3.8,12.5
		s-6.2,6.8-10.9,9c2.3,1.2,4.4,2.6,6.3,4.3s3.5,3.4,4.8,5.3s2.3,4,3.1,6.1c0.7,2.2,1.1,4.4,1.1,6.6c0,4.5-0.8,8.6-2.4,12.5
		s-3.9,7.2-6.7,10.1c-2.8,2.9-6.1,5.1-9.9,6.8c-3.8,1.6-7.9,2.5-12.2,2.5h-48.8L1170.2,509.6L1170.2,509.6z M1194.2,474.2v35.5h24.9
		c2.3,0,4.4-0.6,6.3-1.7s3.6-2.6,5.1-4.4s2.6-3.9,3.4-6.2c0.8-2.3,1.2-4.7,1.2-7.1c0-2.1-0.4-4.1-1.3-6c-0.8-1.9-2-3.7-3.4-5.2
		s-3.1-2.7-5.1-3.6s-4-1.3-6.3-1.3L1194.2,474.2L1194.2,474.2z M1194.2,426.9v35h24.3c2.3,0,4.4-0.4,6.3-1.3c2-0.9,3.7-2.1,5.1-3.6
		s2.6-3.3,3.4-5.2c0.8-2,1.3-4,1.3-6.1c0-2.3-0.4-4.6-1.3-6.8c-0.8-2.2-2-4.2-3.5-6c-1.5-1.7-3.2-3.2-5.1-4.2c-2-1.1-4-1.6-6.3-1.6
		C1218.5,426.9,1194.2,426.9,1194.2,426.9z M1306.8,448.6h23.6v61.1h8.1v12.2h-21.3V515c-3.3,2.5-6.9,4.5-10.8,5.9s-8,2.1-12.5,2.1
		c-3.7,0-7-0.5-10-1.6s-5.5-2.7-7.6-4.9s-3.7-5.1-4.8-8.5c-1.1-3.4-1.7-7.5-1.7-12.3v-35h-9.9v-12.2h23.6v45.6
		c0,5.6,1.3,9.8,3.9,12.7c2.6,2.9,6.3,4.3,11.2,4.3c2.9,0,5.9-0.5,9.1-1.6c3.2-1,6.2-2.5,9-4.3v-44.6h-9.8L1306.8,448.6
		L1306.8,448.6z M1399,463.2c-0.9-1.4-2.1-2.5-3.6-3.4s-3.1-1.5-4.9-1.9s-3.5-0.6-5.2-0.6c-1.9,0-3.6,0.2-5.2,0.6s-2.9,1-4.1,1.8
		c-1.1,0.8-2,1.8-2.7,2.9c-0.6,1.2-1,2.4-1,3.9c0,2.4,0.7,4.4,2.2,5.8s4,2.8,7.5,4l14.1,4.9c6,2,10.4,4.8,13.2,8.3
		c2.8,3.5,4.2,7.7,4.2,12.5c0,3.3-0.6,6.2-1.9,8.9c-1.3,2.7-3.1,5-5.5,6.9s-5.2,3.4-8.6,4.5c-3.3,1.1-7.1,1.6-11.2,1.6
		c-5.7,0-10.3-0.9-13.9-2.8c-3.6-1.8-6.3-4.3-8.3-7.3h-7.3v-12.2h14.6c0,2,0.4,3.8,1.3,5.2c0.9,1.4,2,2.6,3.5,3.5s3.1,1.6,4.9,2
		c1.8,0.4,3.7,0.6,5.5,0.6s3.6-0.2,5.3-0.7c1.7-0.4,3.2-1.1,4.5-2s2.3-1.9,3.1-3.1s1.1-2.6,1.1-4.2c0-2.4-0.8-4.4-2.3-6
		s-4.1-3.1-7.8-4.5l-14-5.2c-5.7-2-9.9-4.6-12.7-7.7c-2.8-3.1-4.1-7.1-4.1-11.8c0-3.1,0.6-6,1.7-8.6s2.8-4.9,5-6.8s4.9-3.4,8-4.5
		c3.2-1.1,6.8-1.6,10.8-1.6c5.2,0,9.6,0.7,13.1,2.2s6.7,4,9.5,7.5h6.9v12.2h-14.5C1400.3,466.3,1399.9,464.6,1399,463.2L1399,463.2z
		 M1427.7,448.6h23.9v61.1h11v12.2h-34.8v-12.2h10.5v-48.9h-10.6V448.6L1427.7,448.6z M1435.8,422.7c0-1.2,0.2-2.4,0.7-3.5
		s1.2-2.1,2-2.9s1.8-1.5,2.9-2s2.3-0.7,3.6-0.7c1.2,0,2.4,0.2,3.5,0.7s2.1,1.2,2.9,2s1.5,1.8,2,2.9s0.7,2.3,0.7,3.5
		c0,1.3-0.2,2.5-0.7,3.6s-1.2,2.1-2,3s-1.8,1.6-2.9,2c-1.1,0.5-2.3,0.7-3.5,0.7c-1.3,0-2.5-0.2-3.6-0.7s-2.1-1.2-2.9-2
		c-0.8-0.9-1.5-1.9-2-3C1436.1,425.1,1435.8,423.9,1435.8,422.7z M1522.9,509.6h10.3v-33.4c0-5.6-1.4-9.9-4.3-12.8
		s-6.9-4.3-12.3-4.3c-3.1,0-6.1,0.7-9.3,2.2c-3.1,1.5-6.1,3.3-8.8,5.4v42.9h10.3v12.2h-34.2v-12.2h10.2v-48.9h-10.2v-12.2h23.3v8.6
		h0.1c1.6-1.4,3.2-2.7,5-3.9c1.8-1.2,3.6-2.3,5.5-3.2s3.9-1.6,6-2.1s4.3-0.8,6.6-0.8c3.9,0,7.4,0.5,10.6,1.6s5.8,2.7,8.1,4.9
		c2.2,2.2,3.9,5.1,5.1,8.5c1.2,3.5,1.8,7.5,1.8,12.3v35.1h10.2v12.2h-34.2L1522.9,509.6L1522.9,509.6z M1583.6,486.9
		c0,2.1,0.2,4,0.5,5.7s0.7,3.4,1.3,4.9c1.7,4.7,4.5,8.3,8.4,10.6c3.8,2.4,8.2,3.6,13,3.6c3.8,0,7.5-0.5,11.1-1.6s7.4-2.7,11.3-5
		l5.3,9c-4.8,3.3-9.6,5.7-14.5,7.3s-9.9,2.4-15.1,2.4c-4.9,0-9.5-0.8-13.7-2.5s-7.8-4.1-10.9-7.3s-5.4-7.3-7.1-12.2
		s-2.6-10.5-2.6-17c0-5.2,0.7-10.2,2.2-14.8s3.6-8.7,6.5-12.2s6.5-6.2,10.8-8.2s9.3-3,15-3c5.5,0,10.1,0.8,13.8,2.5
		c3.7,1.7,6.7,3.9,9,6.6c2.3,2.8,4.1,5.9,5.3,9.4c1.2,3.5,2,7.1,2.5,10.8c0.2,1.8,0.4,3.6,0.5,5.4s0.1,3.6,0.1,5.4L1583.6,486.9
		L1583.6,486.9z M1604.2,457.7c-3.1,0-5.7,0.4-8,1.3s-4.2,2.1-5.8,3.7c-1.6,1.6-2.9,3.6-3.9,6s-1.7,5-2.2,7.9h37.9
		c-0.2-2.7-0.6-5.3-1.3-7.6s-1.7-4.3-3.1-6s-3.2-3-5.4-4C1610.2,458.2,1607.5,457.7,1604.2,457.7L1604.2,457.7z M1695.1,463.2
		c-0.9-1.4-2.1-2.5-3.6-3.4s-3.1-1.5-4.9-1.9s-3.5-0.6-5.2-0.6c-1.9,0-3.6,0.2-5.2,0.6s-2.9,1-4.1,1.8c-1.1,0.8-2,1.8-2.6,2.9
		c-0.6,1.2-1,2.4-1,3.9c0,2.4,0.7,4.4,2.2,5.8s4,2.8,7.5,4l14.1,4.9c6,2,10.4,4.8,13.2,8.3c2.8,3.5,4.2,7.7,4.2,12.5
		c0,3.3-0.6,6.2-1.9,8.9c-1.3,2.7-3.1,5-5.5,6.9s-5.2,3.4-8.6,4.5c-3.3,1.1-7.1,1.6-11.2,1.6c-5.7,0-10.3-0.9-13.9-2.8
		c-3.6-1.8-6.3-4.3-8.3-7.3h-7.3v-12.2h14.6c0,2,0.4,3.8,1.3,5.2c0.9,1.4,2,2.6,3.5,3.5s3.1,1.6,4.9,2c1.8,0.4,3.7,0.6,5.5,0.6
		s3.6-0.2,5.3-0.7c1.7-0.4,3.2-1.1,4.5-2s2.3-1.9,3.1-3.1c0.8-1.2,1.1-2.6,1.1-4.2c0-2.4-0.8-4.4-2.3-6s-4.1-3.1-7.8-4.5l-14-5.2
		c-5.7-2-9.9-4.6-12.7-7.7c-2.8-3.1-4.1-7.1-4.1-11.8c0-3.1,0.6-6,1.7-8.6s2.8-4.9,5-6.8s4.9-3.4,8-4.5c3.2-1.1,6.8-1.6,10.8-1.6
		c5.2,0,9.6,0.7,13.1,2.2s6.7,4,9.5,7.5h6.9v12.2h-14.5C1696.5,466.3,1696,464.6,1695.1,463.2L1695.1,463.2z M1765.3,463.2
		c-0.9-1.4-2.1-2.5-3.6-3.4s-3.1-1.5-4.9-1.9s-3.5-0.6-5.2-0.6c-1.9,0-3.6,0.2-5.2,0.6s-2.9,1-4.1,1.8c-1.1,0.8-2,1.8-2.6,2.9
		c-0.6,1.2-1,2.4-1,3.9c0,2.4,0.7,4.4,2.2,5.8s4,2.8,7.5,4l14.1,4.9c6,2,10.4,4.8,13.2,8.3c2.8,3.5,4.2,7.7,4.2,12.5
		c0,3.3-0.6,6.2-1.9,8.9c-1.3,2.7-3.1,5-5.5,6.9s-5.2,3.4-8.6,4.5c-3.3,1.1-7.1,1.6-11.2,1.6c-5.7,0-10.3-0.9-13.9-2.8
		c-3.6-1.8-6.3-4.3-8.3-7.3h-7.3v-12.2h14.6c0,2,0.4,3.8,1.3,5.2c0.9,1.4,2,2.6,3.5,3.5s3.1,1.6,4.9,2c1.8,0.4,3.7,0.6,5.5,0.6
		s3.6-0.2,5.3-0.7c1.7-0.4,3.2-1.1,4.5-2s2.3-1.9,3.1-3.1c0.8-1.2,1.1-2.6,1.1-4.2c0-2.4-0.8-4.4-2.3-6s-4.1-3.1-7.8-4.5l-14-5.2
		c-5.7-2-9.9-4.6-12.7-7.7c-2.8-3.1-4.1-7.1-4.1-11.8c0-3.1,0.6-6,1.7-8.6s2.8-4.9,5-6.8s4.9-3.4,8-4.5c3.2-1.1,6.8-1.6,10.8-1.6
		c5.2,0,9.6,0.7,13.1,2.2s6.7,4,9.5,7.5h6.9v12.2h-14.5C1766.7,466.3,1766.2,464.6,1765.3,463.2L1765.3,463.2z M1829.3,414.7h76.7
		V445h-14.5v-18.1h-38.2v34.4h36.8v11.9h-36.8v36.5h10.7v12.2h-34.8v-12.2h10.2v-82.8h-10.2L1829.3,414.7L1829.3,414.7z
		 M1958.2,448.6h23.6v61.1h8.1v12.2h-21.3V515c-3.3,2.5-6.9,4.5-10.8,5.9s-8,2.1-12.5,2.1c-3.7,0-7-0.5-10-1.6s-5.5-2.7-7.6-4.9
		s-3.7-5.1-4.8-8.5c-1.1-3.4-1.7-7.5-1.7-12.3v-35h-9.9v-12.2h23.6v45.6c0,5.6,1.3,9.8,3.9,12.7c2.6,2.9,6.3,4.3,11.2,4.3
		c2.9,0,5.9-0.5,9.1-1.6c3.2-1,6.2-2.5,9-4.3v-44.6h-9.8L1958.2,448.6L1958.2,448.6z M2057.7,509.6h10.3v-33.4
		c0-5.6-1.4-9.9-4.3-12.8s-6.9-4.3-12.3-4.3c-3.1,0-6.1,0.7-9.3,2.2c-3.1,1.5-6.1,3.3-8.8,5.4v42.9h10.3v12.2h-34.2v-12.2h10.2
		v-48.9h-10.2v-12.2h23.3v8.6h0.1c1.6-1.4,3.2-2.7,5-3.9c1.8-1.2,3.6-2.3,5.5-3.2s3.9-1.6,6-2.1c2.1-0.5,4.3-0.8,6.6-0.8
		c3.9,0,7.4,0.5,10.6,1.6c3.2,1.1,5.8,2.7,8.1,4.9c2.2,2.2,3.9,5.1,5.1,8.5c1.2,3.5,1.8,7.5,1.8,12.3v35.1h10.2v12.2h-34.2
		L2057.7,509.6L2057.7,509.6z M2149.2,411.9h23.1v97.8h10.7v12.2h-23.9v-6c-2.4,2.4-5.1,4.3-8.2,5.6c-3.1,1.3-6.6,2-10.6,2
		c-4.9,0-9.6-0.9-13.8-2.6c-4.3-1.7-8-4.2-11.1-7.6s-5.6-7.4-7.3-12.2c-1.8-4.8-2.6-10.4-2.6-16.6c0-5.7,0.8-10.8,2.5-15.4
		s4.1-8.6,7.2-11.9c3.1-3.3,6.9-5.8,11.2-7.6c4.4-1.8,9.3-2.7,14.6-2.7c3.5,0,6.8,0.4,9.7,1.2c2.9,0.8,5.7,2.1,8.4,4.1V424h-10
		L2149.2,411.9L2149.2,411.9z M2142,512c3.9,0,7.2-0.6,9.8-1.7c2.6-1.2,5.1-2.9,7.3-5.2v-41c-2.4-2-5.1-3.4-8.1-4.3
		c-3.1-0.9-6.2-1.3-9.4-1.3c-3.1,0-6,0.6-8.8,1.7c-2.7,1.2-5.1,2.8-7.2,5.1s-3.7,4.9-4.8,8.1s-1.8,6.9-1.8,11
		c0,4.5,0.6,8.5,1.7,11.9c1.1,3.4,2.7,6.3,4.7,8.7c2,2.3,4.5,4.1,7.3,5.3C2135.6,511.4,2138.7,512,2142,512L2142,512z M2195,448.6
		h23.9v61.1h11v12.2h-34.8v-12.2h10.5v-48.9H2195C2195,460.8,2195,448.6,2195,448.6z M2203.2,422.7c0-1.2,0.2-2.4,0.7-3.5
		s1.2-2.1,2-2.9s1.8-1.5,2.9-2c1.1-0.5,2.3-0.7,3.6-0.7c1.2,0,2.4,0.2,3.5,0.7s2.1,1.2,2.9,2c0.8,0.8,1.5,1.8,2,2.9s0.7,2.3,0.7,3.5
		c0,1.3-0.2,2.5-0.7,3.6s-1.2,2.1-2,3s-1.8,1.6-2.9,2c-1.1,0.5-2.3,0.7-3.5,0.7c-1.3,0-2.5-0.2-3.6-0.7s-2.1-1.2-2.9-2
		c-0.8-0.9-1.5-1.9-2-3C2203.4,425.1,2203.2,423.9,2203.2,422.7z M2290.2,509.6h10.3v-33.4c0-5.6-1.4-9.9-4.3-12.8
		s-6.9-4.3-12.3-4.3c-3.1,0-6.1,0.7-9.3,2.2c-3.1,1.5-6.1,3.3-8.8,5.4v42.9h10.3v12.2H2242v-12.2h10.2v-48.9H2242v-12.2h23.3v8.6
		h0.1c1.6-1.4,3.2-2.7,5-3.9c1.8-1.2,3.6-2.3,5.5-3.2s3.9-1.6,6-2.1s4.3-0.8,6.6-0.8c3.9,0,7.4,0.5,10.6,1.6
		c3.2,1.1,5.8,2.7,8.1,4.9c2.2,2.2,3.9,5.1,5.1,8.5s1.8,7.5,1.8,12.3v35.1h10.2v12.2h-34.2L2290.2,509.6L2290.2,509.6z
		 M2392.1,515.4c-2.4,2.5-5.2,4.5-8.4,5.9s-6.8,2.1-10.8,2.1c-4.9,0-9.6-0.9-13.8-2.6c-4.3-1.7-8-4.2-11.1-7.6
		c-3.1-3.3-5.6-7.4-7.3-12.2c-1.8-4.8-2.6-10.4-2.6-16.6c0-5.7,0.8-10.8,2.5-15.4s4.1-8.6,7.2-11.9c3.1-3.3,6.9-5.8,11.2-7.6
		c4.4-1.8,9.3-2.7,14.6-2.7c3.7,0,7,0.4,9.9,1.2s5.8,2.2,8.6,4.3v-3.7h13.1v70.3c0,11.6-2.7,20.4-8.2,26.3c-5.5,5.9-14,8.9-25.6,8.9
		c-2.5,0-5.2-0.2-8-0.6c-2.8-0.4-5.5-1-8.2-1.8s-5.3-1.9-7.9-3.1c-2.6-1.3-4.9-2.8-7.1-4.7l7.1-10.7c1.4,1.2,3,2.4,4.8,3.4
		s3.8,1.9,5.8,2.6c2.1,0.7,4.2,1.3,6.4,1.7s4.4,0.6,6.6,0.6c3.6,0,6.8-0.4,9.4-1.1c2.7-0.8,4.9-2.1,6.6-4c1.7-1.9,3-4.5,3.9-7.7
		c0.8-3.3,1.3-7.4,1.3-12.4V515.4L2392.1,515.4z M2374.6,512c2.2,0,4.1-0.2,5.9-0.6c1.8-0.4,3.4-1,4.9-1.7s2.7-1.5,3.9-2.4
		c1.1-0.9,2.1-1.8,2.9-2.8v-40.1c-2.4-2.1-5.2-3.7-8.3-4.6s-6.3-1.4-9.6-1.4c-3.1,0-6,0.6-8.8,1.7c-2.7,1.2-5.1,2.8-7.2,5.1
		c-2,2.2-3.7,4.9-4.8,8.1s-1.8,6.9-1.8,11c0,4.5,0.6,8.5,1.7,11.9c1.1,3.4,2.7,6.3,4.7,8.7c2,2.3,4.5,4.1,7.3,5.3
		C2368.2,511.4,2371.3,512,2374.6,512L2374.6,512z"/>
</g>
<g id="SvgjsG1010" transform="translate(-4.77671646339837, -4.776716463398356) scale(0.9553432926796711)" xmlns:name="symbol_mainfill">
	<path class="st0" d="M284.9,526.5c-46.6,0.1-85.7-31.7-117.1-75.9c-44.4-62.5-73.7-150.4-86.9-206.9c-0.9-3.9,1.5-7.8,5.4-8.6
		c1.6-0.4,3.1-0.2,4.5,0.4c28,12.4,60.2,20.7,92.7,29.1c70.3,18.1,141.7,36.6,177.5,96.4c10.2,17,15.8,39.6,15.9,62.5
		c0,17.6-3.3,35.5-10.4,51.3c-1.2,2.7-2.5,5.3-4,7.9c1.4,2.7,2.8,5.3,4.1,8c9.1,18.4,16.1,37.4,21.1,56.9
		c5.7-43.3,14-79.1,26.1-110.5c0.6-1.6,1.2-3.1,1.8-4.7c-2.4-2.8-4.7-5.6-6.8-8.6c-9.6-13.6-16-29.2-19.1-45.7
		c-5.4-28.6-1-59.9,13.2-87.8c42.3-83.5,126-119.4,208.4-154.7c38.4-16.4,76.5-32.8,109.5-53.7l0,0c1.1-0.7,2.4-1.1,3.7-1.1
		c4-0.1,7.3,3.1,7.3,7.1c1.2,70.8-12,178.1-51.8,260.5c-28.9,59.9-71.9,107-133.5,118.6c-40.7,7.6-73.7,2.9-98.8-9.9
		c-7.7-3.9-14.6-8.5-20.8-13.7c-16,42.2-25.2,92.9-30.3,159.9c0,0.2,0,0.3,0,0.4c-2.7,35.5-4.3,75.5-5.2,121.2
		c-0.1,4-3.4,7.1-7.4,7.1c-4-0.1-7.1-3.4-7.1-7.4c0.9-45.8,2.5-85.9,5.2-121.6c-2.5-36.9-11.9-72.5-28.4-106.1l-0.4-0.8
		c-5.8,7-12.8,13.2-20.9,18C319.6,521.9,303.8,526.5,284.9,526.5L284.9,526.5z M283.8,403.3c-2.9-2.7-3-7.3-0.3-10.2
		c2.7-2.9,7.3-3,10.2-0.3c24.4,23.3,44.5,48.3,60.2,74.6c5.8-13.6,8.5-28.9,8.5-44c0-20.4-4.9-40.3-13.8-55.1
		c-32.8-54.8-101.3-72.4-168.7-89.8c-28.2-7.3-56.2-14.5-81.6-24.3c14.1,55,41.5,132.2,81.2,188c28.9,40.7,64.2,69.9,105.4,69.9
		c16.1,0,29.4-3.8,40.1-10.2c8.5-5.1,15.4-11.8,20.9-19.7C330.2,454.3,309.5,427.9,283.8,403.3L283.8,403.3z M551.8,268.3
		c3.1-2.5,7.7-1.9,10.1,1.2s1.9,7.7-1.2,10.1c-63,49.9-102.9,92.2-128,149.6c6.2,5.8,13.4,10.9,21.5,15
		c22.5,11.4,52.3,15.6,89.7,8.6c56.4-10.6,96.1-54.6,123.2-110.7c36.4-75.4,49.9-172.5,50.4-241.3c-31.2,18.3-65.8,33.2-100.6,48.1
		c-80,34.3-161.2,69.1-201.1,147.9c-12.7,25-16.6,53.1-11.9,78.6c2.7,14.5,8.3,28.2,16.7,40c0.5,0.7,1,1.4,1.5,2.1
		C448.4,360.6,489,317.9,551.8,268.3z"/>
</g>
</svg>
